Coordinates
version=1
nRows=21
nColumns=22
inDegrees=yes

Units are S.I. units (second, meters, Newtons, ...)
If the header above contains a line with 'inDegrees', this indicates whether rotational values are in degrees (yes) or radians (no).

endheader
time	pelvis_tilt	pelvis_list	pelvis_rotation	pelvis_tx	pelvis_ty	pelvis_tz	hip_flexion_r	hip_adduction_r	hip_rotation_r	knee_angle_r	ankle_angle_r	subtalar_angle_r	hip_flexion_l	hip_adduction_l	hip_rotation_l	knee_angle_l	ankle_angle_l	subtalar_angle_l	lumbar_extension	lumbar_bending	lumbar_rotation
      0.01000000	      2.08442038	     -1.11245227	      1.17809742	     -0.62345738	      1.08557941	      1.12225845	     -3.32256209	      2.01795777	     -5.23736529	     -9.83175640	     12.34079032	     -2.54645914	     -3.50229541	     -0.92137697	      0.10678580	    -10.98226814	     13.27919375	     -2.39100025	     -2.18716520	     -0.92819690	     -6.11587073
      0.02000000	      2.07798454	     -1.10980320	      1.17459875	     -0.62349354	      1.08558394	      1.12232939	     -3.31599618	      2.01834888	     -5.23829048	     -9.82625663	     12.34079623	     -2.54658571	     -3.49513315	     -0.92172168	      0.10707541	    -10.97859614	     13.27893460	     -2.39098032	     -2.20363995	     -0.92339406	     -6.11703308
      0.03000000	      2.07208505	     -1.11362273	      1.17380941	     -0.62358455	      1.08558902	      1.12241153	     -3.29982376	      2.02634741	     -5.23255078	     -9.83531203	     12.33457693	     -2.54748911	     -3.47228913	     -0.92995640	      0.10958420	    -11.00009428	     13.27086439	     -2.39015203	     -2.23263522	     -0.90977752	     -6.12466953
      0.04000000	      2.06110457	     -1.11532902	      1.17178239	     -0.62367274	      1.08559028	      1.12249663	     -3.28221872	      2.03187817	     -5.23467787	     -9.83570461	     12.32907190	     -2.54778575	     -3.44546985	     -0.93575866	      0.10905160	    -11.01874573	     13.26614443	     -2.38883338	     -2.25731569	     -0.89704770	     -6.12638624
      0.05000000	      2.04712505	     -1.11607462	      1.17067576	     -0.62376902	      1.08558931	      1.12258989	     -3.26107566	      2.03691223	     -5.23807396	     -9.83609541	     12.32293190	     -2.54780173	     -3.41504722	     -0.94116863	      0.10789059	    -11.03655795	     13.26240031	     -2.38680060	     -2.28231918	     -0.88768017	     -6.12376827
      0.06000000	      2.03098169	     -1.11628792	      1.16935001	     -0.62387267	      1.08558628	      1.12269091	     -3.23736998	      2.04178645	     -5.24186957	     -9.83621632	     12.31661321	     -2.54784592	     -3.38144394	     -0.94639823	      0.10643300	    -11.05504390	     13.25827514	     -2.38402057	     -2.30704885	     -0.88096713	     -6.11649523
      0.07000000	      2.01348148	     -1.11564523	      1.16797568	     -0.62397962	      1.08558178	      1.12279232	     -3.21253778	      2.04578549	     -5.24510449	     -9.83551348	     12.31041897	     -2.54803801	     -3.34683672	     -0.95059000	      0.10486980	    -11.07238003	     13.25386093	     -2.38075042	     -2.33142496	     -0.87605733	     -6.10510727
      0.08000000	      1.99589618	     -1.11397860	      1.16845059	     -0.62409135	      1.08557792	      1.12288715	     -3.18823283	      2.04845341	     -5.24740235	     -9.83393158	     12.30429137	     -2.54830308	     -3.31179719	     -0.95367474	      0.10412765	    -11.08918231	     13.24848661	     -2.37719904	     -2.35701448	     -0.87271171	     -6.08828922
      0.09000000	      1.97691736	     -1.11167776	      1.16722923	     -0.62420729	      1.08557321	      1.12299146	     -3.16259359	      2.05131105	     -5.25006391	     -9.83097964	     12.29794977	     -2.54856399	     -3.27537092	     -0.95609387	      0.10313443	    -11.10584450	     13.24262246	     -2.37303539	     -2.38093802	     -0.87230696	     -6.06813963
      0.10000000	      1.95587502	     -1.10859444	      1.16585324	     -0.62432186	      1.08556478	      1.12309473	     -3.13582261	      2.05282411	     -5.25248211	     -9.82638867	     12.29190912	     -2.54876298	     -3.23735088	     -0.95794623	      0.10234616	    -11.12170695	     13.23658149	     -2.36808822	     -2.40206454	     -0.87402417	     -6.04449021
      0.11000000	      1.93349054	     -1.10466565	      1.16568958	     -0.62443364	      1.08555363	      1.12319307	     -3.10927277	      2.05364973	     -5.25483467	     -9.81946932	     12.28652317	     -2.54880654	     -3.19894116	     -0.95848147	      0.10211788	    -11.13544326	     13.23051748	     -2.36262170	     -2.42059107	     -0.87725649	     -6.01855699
      0.12000000	      1.92116010	     -1.10114301	      1.16730235	     -0.62451665	      1.08555397	      1.12327621	     -3.09786720	      2.05425551	     -5.25682510	     -9.80825009	     12.28693880	     -2.54866492	     -3.18471963	     -0.95926107	      0.10061643	    -11.12567091	     13.23060105	     -2.36212770	     -2.44715500	     -0.87621743	     -6.01407502
      0.13000000	      1.85362720	     -1.09351279	      1.16311694	     -0.62465061	      1.08548271	      1.12337674	     -3.01490194	      2.04892579	     -5.25543670	     -9.81386438	     12.26181089	     -2.54771229	     -3.08584681	     -0.95553409	      0.08598774	    -11.16034078	     13.21482223	     -2.33997437	     -2.41399426	     -0.88830053	     -5.96314982
      0.14000000	      1.83923366	     -1.09188947	      1.17177724	     -0.62473384	      1.08547446	      1.12345561	     -3.00702956	      2.05268793	     -5.26251896	     -9.79227578	     12.27059030	     -2.54769953	     -3.06121761	     -0.95902180	      0.09624116	    -11.16686139	     13.21374466	     -2.33813195	     -2.43903918	     -0.89104867	     -5.93409113
      0.15000000	      1.82192560	     -1.08915827	      1.17971261	     -0.62481234	      1.08546326	      1.12353155	     -2.99615538	      2.05472358	     -5.27331907	     -9.77059959	     12.26878300	     -2.54694224	     -3.03440511	     -0.96110916	      0.10383501	    -11.17181498	     13.21026615	     -2.33545700	     -2.46069579	     -0.89485517	     -5.90274881
      0.16000000	      1.80207301	     -1.08647240	      1.18912904	     -0.62487904	      1.08544876	      1.12360299	     -2.98375401	      2.05664141	     -5.28617622	     -9.74811524	     12.26281128	     -2.54561920	     -3.00665952	     -0.96343770	      0.11043760	    -11.17395088	     13.20570606	     -2.33219121	     -2.47916283	     -0.89904439	     -5.87019058
      0.17000000	      1.77695341	     -1.08439961	      1.19661745	     -0.62493826	      1.08542600	      1.12367036	     -2.96619021	      2.05851467	     -5.30301452	     -9.72398428	     12.25206844	     -2.54329690	     -2.97448807	     -0.96523521	      0.12025353	    -11.17602768	     13.19974560	     -2.32689178	     -2.49150903	     -0.90151343	     -5.83634638
      0.18000000	      1.75355306	     -1.08255611	      1.21258622	     -0.62498151	      1.08540459	      1.12372881	     -2.95129485	      2.06163142	     -5.31798601	     -9.70214145	     12.24432847	     -2.54107708	     -2.94603363	     -0.96892353	      0.12975682	    -11.17358212	     13.19487031	     -2.32198493	     -2.50542109	     -0.90539919	     -5.80450876
      0.19000000	      1.73091628	     -1.08103738	      1.23054349	     -0.62500992	      1.08538444	      1.12377658	     -2.93778589	      2.06462670	     -5.33407944	     -9.68084363	     12.23662575	     -2.53897519	     -2.92074813	     -0.97245658	      0.14163475	    -11.16836991	     13.19010706	     -2.31667383	     -2.51956888	     -0.90883534	     -5.77526694
      0.20000000	      1.70909882	     -1.07938173	      1.25155190	     -0.62502665	      1.08536507	      1.12381597	     -2.92610936	      2.06776807	     -5.35196977	     -9.65950952	     12.22918359	     -2.53723244	     -2.89815129	     -0.97570119	      0.15632346	    -11.16036777	     13.18507559	     -2.31072166	     -2.53422765	     -0.91251893	     -5.74814244
      0.21000000	      1.68893755	     -1.07739468	      1.27541495	     -0.62503391	      1.08534877	      1.12385087	     -2.91668472	      2.07076583	     -5.37177543	     -9.63844300	     12.22249723	     -2.53615570	     -2.87898259	     -0.97880184	      0.17315458	    -11.14985412	     13.17976770	     -2.30435939	     -2.54886705	     -0.91726136	     -5.72378920
